<svg xmlns="http://www.w3.org/2000/svg" viewBox="80 65 240 280" width="200" height="200">
  <path id="path0" d="M190.574 66.807 C 180.788 67.630,171.299 69.386,139.258 76.307 C 123.556 79.699,110.482 82.483,90.436 86.704 C 82.561 88.362,81.513 88.813,80.365 91.043 C 79.308 93.096,79.523 203.476,80.598 210.742 C 88.551 264.494,123.088 303.920,184.961 329.877 C 200.727 336.492,200.518 336.474,211.133 332.130 C 271.408 307.464,307.790 269.432,317.727 220.703 C 320.192 208.613,320.065 212.258,320.207 149.392 L 320.337 91.949 319.445 90.624 C 317.991 88.468,316.788 88.060,303.906 85.354 C 297.139 83.932,290.459 82.520,289.063 82.215 C 224.402 68.113,207.153 65.414,190.574 66.807 M207.813 85.163 C 216.714 85.831,225.932 87.526,256.641 94.141 C 261.689 95.228,271.973 97.417,279.492 99.004 C 301.035 103.550,300.623 103.417,302.050 106.258 C 302.878 107.905,303.115 197.967,302.313 206.085 C 298.161 248.108,271.052 282.929,224.023 306.646 C 210.697 313.367,203.499 316.238,200.983 315.836 C 197.733 315.316,193.100 311.277,189.522 305.843 C 177.035 286.884,179.983 252.364,194.092 252.341 C 201.109 252.330,214.300 248.647,224.039 243.979 C 257.749 227.823,274.074 197.683,275.789 148.438 C 276.769 120.256,276.423 115.820,273.128 114.363 L 271.396 113.596 267.631 114.451 C 207.249 128.167,174.364 145.931,159.194 173.030 C 150.827 187.976,148.725 208.379,153.939 224.023 C 156.292 231.084,162.882 244.379,162.893 242.090 C 162.894 241.821,164.445 238.438,166.340 234.570 C 180.736 205.184,199.380 183.540,237.707 151.723 C 246.070 144.780,248.059 144.105,250.879 147.251 C 253.394 150.057,252.564 151.660,245.508 157.623 C 206.122 190.906,184.236 218.058,172.151 248.633 C 165.162 266.315,164.086 284.501,169.139 299.538 C 169.761 301.391,170.230 302.947,170.181 302.996 C 170.132 303.045,167.480 301.590,164.288 299.763 C 123.396 276.358,100.510 243.300,97.279 202.971 C 96.405 192.062,96.756 108.305,97.684 106.388 C 99.021 103.627,99.634 103.419,118.228 99.428 C 127.646 97.407,141.064 94.526,148.047 93.026 C 184.278 85.241,193.203 84.067,207.813 85.163" 
  fill="#176919" stroke="none" fill-rule="evenodd"/>
</svg>